<?xml version="1.0" standalone="no"?>
<!DOCTYPE svg PUBLIC "-//W3C//DTD SVG 20010904//EN"
 "http://www.w3.org/TR/2001/REC-SVG-20010904/DTD/svg10.dtd">
<svg version="1.0" xmlns="http://www.w3.org/2000/svg"
 width="522.000000pt" height="88.000000pt" viewBox="0 0 522.000000 88.000000"
 preserveAspectRatio="xMidYMid meet">

<g transform="translate(0.000000,88.000000) scale(0.100000,-0.100000)"
fill="#000000" stroke="none">
<path d="M1661 866 c-8 -9 -11 -104 -9 -327 l3 -314 223 -3 222 -2 0 60 0 59
-147 3 -148 3 0 70 0 70 130 3 c88 2 132 7 137 15 4 7 8 28 8 47 0 19 -4 40
-8 47 -5 8 -49 13 -137 15 l-130 3 -3 62 -3 62 143 3 143 3 3 53 c2 31 -2 60
-9 68 -17 20 -401 21 -418 0z"/>
<path d="M2225 848 c-3 -18 -4 -166 -3 -328 l3 -295 73 -3 72 -3 0 195 c0 140
3 197 12 202 6 4 13 3 15 -3 2 -6 25 -44 50 -85 25 -40 64 -102 86 -138 22
-36 55 -89 74 -118 l34 -53 87 3 87 3 3 295 c1 162 0 310 -3 328 l-6 32 -69 0
c-57 0 -69 -3 -72 -17 -2 -10 -2 -102 0 -204 3 -121 1 -188 -6 -192 -10 -7
-45 44 -138 198 -97 161 -111 183 -126 199 -12 12 -36 16 -92 16 l-75 0 -6
-32z"/>
<path d="M20 546 c0 -174 3 -316 8 -316 15 0 367 296 369 310 1 8 -47 55 -109
105 -60 50 -115 95 -122 100 -12 11 -101 83 -128 104 -17 13 -18 -3 -18 -303z"/>
<path d="M486 853 c-10 -10 -7 -623 3 -623 5 0 78 57 163 128 84 70 166 137
181 148 15 12 27 28 27 35 -1 8 -78 77 -172 154 -93 77 -176 145 -183 152 -7
7 -15 9 -19 6z"/>
<path d="M946 853 c-10 -11 -7 -623 3 -623 8 0 125 93 231 184 14 11 53 44 88
71 34 28 62 53 62 56 0 4 -42 41 -92 82 -51 41 -136 111 -190 155 -53 44 -99
78 -102 75z"/>
<path d="M3095 641 c-70 -17 -114 -62 -140 -142 -42 -126 25 -258 148 -291 56
-15 107 -1 162 42 21 16 42 30 46 30 12 0 11 -77 -1 -120 -5 -20 -25 -51 -45
-70 -28 -28 -44 -34 -89 -38 -78 -6 -121 4 -161 39 -42 37 -65 35 -36 -3 68
-86 256 -90 325 -7 40 47 46 90 46 327 0 191 -2 222 -15 222 -10 0 -15 -10
-15 -30 0 -33 -19 -40 -40 -15 -37 44 -125 71 -185 56z m142 -52 c57 -36 83
-87 83 -166 0 -100 -42 -162 -124 -184 -114 -31 -217 57 -217 186 0 151 137
238 258 164z"/>
<path d="M3912 640 c-73 -17 -136 -84 -154 -162 -31 -139 70 -278 201 -278
167 1 266 192 178 343 -44 75 -142 118 -225 97z m117 -40 c128 -65 147 -232
38 -327 -70 -61 -158 -57 -223 12 -95 99 -71 255 48 314 53 26 88 27 137 1z"/>
<path d="M4946 636 c-21 -8 -51 -27 -68 -43 -24 -23 -30 -25 -38 -13 -5 8 -10
26 -10 38 0 15 -5 22 -12 20 -10 -4 -14 -76 -16 -306 -2 -297 -2 -302 18 -302
19 0 20 6 20 125 0 69 2 125 5 125 3 0 25 -16 50 -35 102 -78 230 -50 285 61
13 27 27 57 32 66 11 25 10 98 -2 98 -5 0 -10 7 -10 17 0 9 -11 36 -25 59 -46
78 -150 119 -229 90z m147 -53 c48 -34 79 -89 84 -152 4 -37 -1 -57 -24 -100
-53 -101 -155 -127 -246 -64 -54 38 -67 68 -67 161 0 95 20 132 90 170 56 30
107 25 163 -15z"/>
<path d="M3507 633 c-4 -3 -7 -100 -7 -215 0 -178 2 -208 15 -208 13 0 15 21
15 130 0 87 5 141 14 163 15 38 79 97 104 97 10 0 27 6 38 14 19 14 19 15 0
22 -23 9 -102 -30 -117 -58 -16 -29 -28 -21 -35 22 -6 39 -13 47 -27 33z"/>
<path d="M4292 468 c3 -131 7 -170 22 -200 20 -42 66 -68 120 -68 41 0 116 32
142 61 24 27 42 24 46 -7 3 -26 31 -54 43 -43 3 4 1 18 -5 33 -5 15 -10 108
-10 207 0 152 -2 179 -15 179 -13 0 -15 -21 -15 -125 0 -144 -12 -181 -77
-234 -71 -59 -157 -50 -197 19 -18 30 -21 56 -25 188 -3 127 -6 152 -18 152
-13 0 -15 -23 -11 -162z"/>
</g>
</svg>
