<?xml version="1.0" standalone="no"?>
<!DOCTYPE svg PUBLIC "-//W3C//DTD SVG 20010904//EN"
 "http://www.w3.org/TR/2001/REC-SVG-20010904/DTD/svg10.dtd">
<svg version="1.0" xmlns="http://www.w3.org/2000/svg"
 width="137.000000pt" height="68.000000pt" viewBox="0 0 137.000000 68.000000"
 preserveAspectRatio="xMidYMid meet">

<g transform="translate(0.000000,68.000000) scale(0.100000,-0.100000)"
fill="#f44336" stroke="none">
<path d="M20 346 c0 -174 3 -316 8 -316 15 0 367 296 369 310 1 8 -47 55 -109
105 -60 50 -115 95 -122 100 -12 11 -101 83 -128 104 -17 13 -18 -3 -18 -303z"/>
<path d="M486 653 c-10 -10 -7 -623 3 -623 5 0 78 57 163 128 84 70 166 137
181 148 15 12 27 28 27 35 -1 8 -78 77 -172 154 -93 77 -176 145 -183 152 -7
7 -15 9 -19 6z"/>
<path d="M946 653 c-10 -11 -7 -623 3 -623 8 0 125 93 231 184 14 11 53 44 88
71 34 28 62 53 62 56 0 4 -42 41 -92 82 -51 41 -136 111 -190 155 -53 44 -99
78 -102 75z"/>
</g>
</svg>
